<?xml version="1.0" encoding="UTF-8" standalone="no"?>
<svg
   width="323.74637"
   height="323.71201"
   fill="#999999"
   version="1.1"
   viewBox="0 0 85.660001 85.650908"
   id="svg39"
   sodipodi:docname="spinner.svg"
   xml:space="preserve"
   inkscape:version="1.4.2 (ebf0e940d0, 2025-05-08)"
   xmlns:inkscape="http://www.inkscape.org/namespaces/inkscape"
   xmlns:sodipodi="http://sodipodi.sourceforge.net/DTD/sodipodi-0.dtd"
   xmlns="http://www.w3.org/2000/svg"
   xmlns:svg="http://www.w3.org/2000/svg"><defs
     id="defs43" /><sodipodi:namedview
     id="namedview41"
     pagecolor="#ffffff"
     bordercolor="#000000"
     borderopacity="0.25"
     inkscape:showpageshadow="2"
     inkscape:pageopacity="0.0"
     inkscape:pagecheckerboard="0"
     inkscape:deskcolor="#d1d1d1"
     showgrid="false"
     inkscape:zoom="1.4142136"
     inkscape:cx="-0.70710676"
     inkscape:cy="183.4942"
     inkscape:window-width="1746"
     inkscape:window-height="958"
     inkscape:window-x="0"
     inkscape:window-y="0"
     inkscape:window-maximized="1"
     inkscape:current-layer="svg39" /><path
     id="path652"
     style="fill:#b0b0b0;fill-opacity:1;stroke-width:0.194898"
     d="M 42.83,0 A 42.83,42.825454 0 0 0 0,42.825454 42.83,42.825454 0 0 0 42.83,85.650908 42.83,42.825454 0 0 0 85.66,42.825454 42.83,42.825454 0 0 0 42.83,0 Z m 0,2.4039868 A 40.43,40.421467 0 0 1 83.26,42.825454 40.43,40.421467 0 0 1 42.83,83.246921 40.43,40.421467 0 0 1 2.4,42.825454 40.43,40.421467 0 0 1 42.83,2.4039868 Z" /><path
     id="path652-3-6"
     style="fill:#b0b0b0;fill-opacity:1;stroke-width:0.156078"
     d="m 9.845351,49.846157 a 1.6390967,1.6686075 76.639782 0 0 -1.259417,1.907438 l -0.0045,0.0011 a 35.445239,35.960493 62.096955 0 0 0.01566,0.0547 1.6390967,1.6686075 76.639782 0 0 0.0035,0.0172 1.6390967,1.6686075 76.639782 0 0 0.04714,0.15825 35.445239,35.960493 62.096955 0 0 2.779422,7.073455 35.445239,35.960493 62.096955 0 0 38.876312,17.899187 l -0.0019,-0.008 a 1.6715798,1.6366221 3.3410945 0 0 0.03794,-0.008 1.6715798,1.6366221 3.3410945 0 0 1.225633,-1.97591 1.6715798,1.6366221 3.3410945 0 0 -2.021516,-1.205229 1.6715798,1.6366221 3.3410945 0 0 -0.02694,0.0072 32.140974,32.608195 62.096955 0 1 -35.127179,-16.279363 32.140974,32.608195 62.096955 0 1 -2.554602,-6.506993 l -0.0061,0.0014 A 1.6390967,1.6686075 76.639782 0 0 9.845219,49.845366 Z m 9.56493,4.604615 a 1.6390967,1.6686075 76.639782 0 0 -1.244225,1.98032 1.6390967,1.6686075 76.639782 0 0 0.17128,0.430452 l -0.0038,0.0019 a 28.459304,28.873006 62.096955 0 0 22.287466,13.797923 1.6534231,1.6686075 76.639782 0 0 0.224614,0.02209 28.459304,28.873006 62.096955 0 0 0.0044,10e-4 1.6534231,1.6686075 76.639782 0 0 0.436227,-0.0441 1.6534231,1.6686075 76.639782 0 0 1.241399,-1.994514 1.6534231,1.6686075 76.639782 0 0 -1.566283,-1.267672 l 1.43e-4,-0.0059 A 25.168146,25.534006 62.096955 0 1 21.228452,55.198047 l -0.0038,0.0019 a 1.6390967,1.6686075 76.639782 0 0 -1.814316,-0.748788 z" /><path
     id="path652-3-6-7"
     style="fill:#b0b0b0;fill-opacity:1;stroke-width:0.156078"
     d="m 57.108349,18.826624 a 1.6686075,1.6534231 14.424493 0 0 -1.658246,1.238511 1.6686075,1.6534231 14.424493 0 0 0.795034,1.851559 l -0.0031,0.0052 A 25.168146,25.534006 89.881667 0 1 68.02528,41.890995 l 0.0041,2.3e-5 a 1.6686075,1.6390967 14.424493 0 0 1.255909,1.508477 l -2e-6,5.17e-4 a 1.6686075,1.6390967 14.424493 0 0 2.023747,-1.17233 1.6686075,1.6390967 14.424493 0 0 0.04916,-0.460691 l 0.0041,2.4e-5 a 28.459304,28.873006 89.881667 0 0 -13.285938,-22.596318 1.6686075,1.6534231 14.424493 0 0 -0.188431,-0.124078 28.459304,28.873006 89.881667 0 0 -0.0031,-0.0031 1.6686075,1.6534231 14.424493 0 0 -0.406801,-0.164091 1.6686075,1.6534231 14.424493 0 0 -0.369715,-0.05276 z" /><path
     id="path652-3-6-7-5"
     style="fill:#b0b0b0;fill-opacity:1;stroke-width:0.156078"
     d="m 37.217157,8.2421116 a 1.6715798,1.6366221 7.6736756 0 0 -0.954548,1.754522 1.6715798,1.6366221 7.6736756 0 0 1.924724,1.3544364 1.6715798,1.6366221 7.6736756 0 0 0.02718,-0.0048 32.140974,32.608195 66.429537 0 1 33.796848,18.886832 32.140974,32.608195 66.429537 0 1 2.05605,6.680986 l 0.0061,-9.08e-4 a 1.6390967,1.6686075 80.972363 0 0 1.892166,1.283487 l 2.8e-4,-6.8e-4 a 1.6390967,1.6686075 80.972363 0 0 1.39967,-1.80693 l 0.005,-5.21e-4 a 35.445239,35.960493 66.429537 0 0 -0.0112,-0.05582 1.6390967,1.6686075 80.972363 0 0 -0.003,-0.0173 1.6390967,1.6686075 80.972363 0 0 -0.0351,-0.1614 35.445239,35.960493 66.429537 0 0 -2.237345,-7.26326 A 35.445239,35.960493 66.429537 0 0 37.670923,8.1057616 l 0.0014,0.0084 a 1.6715798,1.6366221 7.6736756 0 0 -0.03828,0.005 1.6715798,1.6366221 7.6736756 0 0 -0.416722,0.12288 z" /><path
     id="path656"
     style="fill:#b0b0b0;fill-opacity:1;stroke-width:0.141026"
     d="M 52.02018,21.196817 C 51.11364,20.651923 49.935608,20.997054 49.388292,21.93505 L 41.17661,35.596831 a 7.3771401,7.2714383 31.0088 0 1 4.147207,0.382158 L 52.61089,23.85548 c 0.559426,-0.930718 0.291656,-2.1283 -0.59071,-2.658663 z m -5.466063,-3.005451 c -0.882366,-0.530364 -2.057879,-0.216747 -2.624569,0.726055 l -19.158501,31.87401 c -0.559422,0.930711 -0.292091,2.128039 0.590274,2.658402 0.882366,0.530364 2.065148,0.204654 2.62457,-0.726057 l 19.158501,-31.87401 c 0.559425,-0.930715 0.29209,-2.128037 -0.590275,-2.6584 z m 9.469403,8.390262 c -0.882373,-0.530368 -2.057879,-0.216746 -2.624569,0.726056 l -5.967212,9.927656 a 7.3771401,7.2714383 31.0088 0 1 2.285007,3.479314 l 6.897049,-11.474625 c 0.559424,-0.930714 0.292092,-2.128037 -0.590275,-2.658401 z M 39.966583,17.0783 c -0.894449,-0.537627 -2.072256,-0.192827 -2.638946,0.749976 L 19.455014,47.56297 c -0.573955,0.954889 -0.306731,2.152395 0.575634,2.682758 0.882366,0.530363 2.072947,0.19266 2.639643,-0.750152 L 40.542914,19.760881 c 0.573955,-0.954889 0.306035,-2.152218 -0.576331,-2.682581 z m 18.18819,18.056908 c -0.882366,-0.530363 -2.065144,-0.204659 -2.624569,0.726057 l -14.74119,24.524926 c -0.559432,0.930728 -0.292092,2.128038 0.590275,2.658402 0.882367,0.530364 2.065571,0.204932 2.625003,-0.725796 l 14.74119,-24.524926 c 0.559425,-0.930715 0.291658,-2.128298 -0.590709,-2.658663 z M 31.417861,19.229048 c -0.894452,-0.537628 -2.077254,-0.211941 -2.624569,0.726055 l -14.675837,24.4162 c -0.559427,0.930719 -0.29209,2.12804 0.590274,2.658402 0.882368,0.530365 2.065143,0.204662 2.624569,-0.726057 l 14.675837,-24.4162 c 0.559426,-0.930717 0.292094,-2.128036 -0.590274,-2.6584 z m 31.907602,19.37643 c -0.89445,-0.537627 -2.07769,-0.2122 -2.625005,0.725795 L 46.119252,63.590035 c -0.559432,0.930728 -0.291657,2.1283 0.590709,2.658663 0.882367,0.530364 2.065138,0.204671 2.62457,-0.726056 L 63.915737,41.26388 c 0.559425,-0.930716 0.292092,-2.128039 -0.590274,-2.658402 z M 24.818585,18.108924 c -0.88237,-0.530366 -2.031762,-0.233755 -2.566971,0.629245 L 9.908082,39.27411 c -0.530366,0.88237 -0.23363,2.031753 0.64874,2.562119 0.882367,0.530364 2.036173,0.252858 2.566539,-0.629512 L 25.466893,20.670775 c 0.530363,-0.882366 0.234059,-2.031487 -0.648308,-2.561851 z m 42.217156,26.395527 c -0.882366,-0.530364 -2.065144,-0.20466 -2.624569,0.726056 L 51.442606,66.806319 c -0.559427,0.930719 -0.292093,2.128039 0.590274,2.658402 0.882373,0.530368 2.065578,0.204924 2.625005,-0.725795 L 67.626451,47.163114 c 0.559425,-0.930716 0.291663,-2.128295 -0.59071,-2.658663 z m 2.940335,7.180908 c -0.882367,-0.530364 -2.045712,-0.209563 -2.617245,0.71388 l -10.49118,17.454183 c -0.559421,0.930709 -0.292096,2.128035 0.590271,2.658399 0.882373,0.530368 2.06515,0.204655 2.624571,-0.726055 L 70.566354,54.343761 c 0.559423,-0.930713 0.292096,-2.128034 -0.590278,-2.658402 z M 16.312822,20.187216 c -0.882369,-0.530365 -2.064884,-0.205092 -2.624307,0.725621 l -5.899508,9.815014 c -0.559423,0.930713 -0.292095,2.128037 0.590274,2.658402 0.882365,0.530363 2.065582,0.204917 2.625005,-0.725795 l 5.899507,-9.815014 c 0.559424,-0.930713 0.291394,-2.127866 -0.590971,-2.658228 z m 56.557303,38.78266 c -0.894449,-0.537626 -2.077252,-0.211943 -2.624567,0.726059 l -5.557844,9.246589 c -0.559431,0.930726 -0.292092,2.128037 0.590271,2.658399 0.882364,0.530362 2.065579,0.204936 2.625011,-0.725791 l 5.557844,-9.246589 c 0.559428,-0.93072 0.291649,-2.128305 -0.590715,-2.658667 z M 35.663989,44.768182 30.128102,53.97824 c -0.559432,0.930728 -0.292092,2.128038 0.590275,2.658402 0.882365,0.530363 2.065572,0.204932 2.625004,-0.725795 l 4.60396,-7.65961 a 7.3771401,7.2714383 31.0088 0 1 -2.283352,-3.483055 z m 8.533339,5.129131 a 7.3771401,7.2714383 31.0088 0 1 -4.146771,-0.381897 l -4.618598,7.683966 c -0.559423,0.930711 -0.2921,2.128034 0.590273,2.658402 0.882367,0.530364 2.065148,0.204654 2.62457,-0.726057 z" /></svg>
