<?xml version="1.0" encoding="UTF-8" standalone="no"?>
<svg
   width="458.15433"
   height="458.14529"
   fill="#999999"
   version="1.1"
   viewBox="0 0 121.22298 121.22059"
   id="svg39"
   sodipodi:docname="logo.svg"
   xml:space="preserve"
   inkscape:version="1.4.2 (ebf0e940d0, 2025-05-08)"
   xmlns:inkscape="http://www.inkscape.org/namespaces/inkscape"
   xmlns:sodipodi="http://sodipodi.sourceforge.net/DTD/sodipodi-0.dtd"
   xmlns="http://www.w3.org/2000/svg"
   xmlns:svg="http://www.w3.org/2000/svg"><defs
     id="defs43" /><sodipodi:namedview
     id="namedview41"
     pagecolor="#ffffff"
     bordercolor="#000000"
     borderopacity="0.25"
     inkscape:showpageshadow="2"
     inkscape:pageopacity="0.0"
     inkscape:pagecheckerboard="0"
     inkscape:deskcolor="#d1d1d1"
     showgrid="false"
     inkscape:zoom="1.4142136"
     inkscape:cx="242.18407"
     inkscape:cy="225.2135"
     inkscape:window-width="1746"
     inkscape:window-height="958"
     inkscape:window-x="0"
     inkscape:window-y="0"
     inkscape:window-maximized="1"
     inkscape:current-layer="svg39" /><path
     id="path652"
     style="fill:#b0b0b0;fill-opacity:1;stroke-width:0.275824"
     d="M 60.611121,0 A 60.611689,60.610075 0 0 0 0,60.610664 60.611689,60.610075 0 0 0 60.611121,121.22059 60.611689,60.610075 0 0 0 121.22297,60.610664 60.611689,60.610075 0 0 0 60.611121,0 Z m 0,3.4001508 A 57.211978,57.210453 0 0 1 117.82318,60.610664 57.211978,57.210453 0 0 1 60.611121,117.82118 57.211978,57.210453 0 0 1 3.3997858,60.610664 57.211978,57.210453 0 0 1 60.611121,3.4001508 Z" /><path
     id="path652-3-6"
     style="fill:#b0b0b0;fill-opacity:1;stroke-width:0.224072"
     d="m 13.254917,70.69184 a 2.3531499,2.3955169 76.639782 0 0 -1.808067,2.73839 l -0.0064,0.0015 a 50.886543,51.626261 62.096955 0 0 0.02248,0.07853 2.3531499,2.3955169 76.639782 0 0 0.0051,0.02469 2.3531499,2.3955169 76.639782 0 0 0.06766,0.22719 50.886543,51.626261 62.096955 0 0 3.990244,10.154931 50.886543,51.626261 62.096955 0 0 55.812322,25.696769 l -0.0028,-0.0115 a 2.399784,2.3495973 3.3410945 0 0 0.05446,-0.0114 2.399784,2.3495973 3.3410945 0 0 1.759566,-2.8367 2.399784,2.3495973 3.3410945 0 0 -2.902166,-1.73028 2.399784,2.3495973 3.3410945 0 0 -0.03867,0.01 A 46.142813,46.813575 62.096955 0 1 19.778684,81.662967 46.142813,46.813575 62.096955 0 1 16.1112,72.321279 l -0.0088,0.002 a 2.3531499,2.3955169 76.639782 0 0 -2.847711,-1.632645 z m 13.73178,6.610562 a 2.3531499,2.3955169 76.639782 0 0 -1.786258,2.843024 2.3531499,2.3955169 76.639782 0 0 0.245897,0.617973 l -0.0055,0.0028 a 40.857267,41.451193 62.096955 0 0 31.99674,19.808831 2.3737175,2.3955169 76.639782 0 0 0.322464,0.0317 40.857267,41.451193 62.096955 0 0 0.0063,9.2e-4 2.3737175,2.3955169 76.639782 0 0 0.626263,-0.0633 2.3737175,2.3955169 76.639782 0 0 1.7822,-2.863404 2.3737175,2.3955169 76.639782 0 0 -2.248616,-1.81992 l 2.06e-4,-0.01 A 36.132355,36.657597 62.096955 0 1 29.596933,78.375218 l -0.0055,0.0028 a 2.3531499,2.3955169 76.639782 0 0 -2.604702,-1.07499 z" /><path
     id="path652-3-6-7"
     style="fill:#b0b0b0;fill-opacity:1;stroke-width:0.224072"
     d="m 81.107487,26.15901 a 2.3955169,2.3737175 14.424493 0 0 -2.380641,1.778053 2.3955169,2.3737175 14.424493 0 0 1.141382,2.65817 l -0.0045,0.0074 a 36.132355,36.657597 89.881667 0 1 16.916514,28.668441 l 0.006,3.5e-5 a 2.3955169,2.3531499 14.424493 0 0 1.80305,2.165626 l -2e-5,7.43e-4 a 2.3955169,2.3531499 14.424493 0 0 2.905368,-1.683043 2.3955169,2.3531499 14.424493 0 0 0.0705,-0.661384 l 0.006,3.3e-5 a 40.857267,41.451193 89.881667 0 0 -19.073628,-32.440139 2.3955169,2.3737175 14.424493 0 0 -0.270519,-0.178131 40.857267,41.451193 89.881667 0 0 -0.0045,-0.0045 2.3955169,2.3737175 14.424493 0 0 -0.584021,-0.235575 2.3955169,2.3737175 14.424493 0 0 -0.530776,-0.07574 z" /><path
     id="path652-3-6-7-5"
     style="fill:#b0b0b0;fill-opacity:1;stroke-width:0.224072"
     d="m 52.55093,10.963479 a 2.399784,2.3495973 7.6736756 0 0 -1.370385,2.51886 2.399784,2.3495973 7.6736756 0 0 2.763206,1.944479 2.399784,2.3495973 7.6736756 0 0 0.03903,-0.0069 46.142813,46.813575 66.429537 0 1 48.520039,27.11466 46.142813,46.813575 66.429537 0 1 2.95175,9.591479 l 0.01,-0.0013 a 2.3531499,2.3955169 80.972363 0 0 2.71647,1.842623 l 4e-4,-0.0011 a 2.3531499,2.3955169 80.972363 0 0 2.00943,-2.594098 l 0.007,-7.48e-4 a 50.886543,51.626261 66.429537 0 0 -0.0161,-0.08013 2.3531499,2.3955169 80.972363 0 0 -0.005,-0.02484 2.3531499,2.3955169 80.972363 0 0 -0.0504,-0.231712 A 50.886543,51.626261 66.429537 0 0 106.91381,40.607383 50.886543,51.626261 66.429537 0 0 53.202204,10.76765 l 0.002,0.01206 a 2.399784,2.3495973 7.6736756 0 0 -0.05496,0.0073 2.399784,2.3495973 7.6736756 0 0 -0.598261,0.17641 z" /><path
     id="path656"
     style="fill:#b0b0b0;fill-opacity:1;stroke-width:0.202463"
     d="m 73.802717,29.56175 c -1.301463,-0.782272 -2.992693,-0.286787 -3.778439,1.059835 L 58.235273,50.234962 a 10.590906,10.439155 31.0088 0 1 5.953889,0.54864 L 74.650763,33.378628 c 0.803134,-1.336175 0.418712,-3.055469 -0.848046,-3.816878 z m -7.847289,-4.314741 c -1.266758,-0.761411 -2.95437,-0.311171 -3.767932,1.042353 L 34.682818,72.048911 c -0.803128,1.336164 -0.419336,3.055094 0.84742,3.816504 1.266757,0.761411 2.964805,0.293808 3.767933,-1.042355 L 66.802848,29.063509 c 0.803132,-1.336169 0.419336,-3.05509 -0.84742,-3.8165 z m 13.594638,12.045382 c -1.266769,-0.761416 -2.95437,-0.311169 -3.767932,1.042354 l -8.566758,14.252523 a 10.590906,10.439155 31.0088 0 1 3.280442,4.995036 l 9.901668,-16.473412 c 0.803132,-1.336169 0.419339,-3.055091 -0.84742,-3.816501 z M 56.498112,23.649049 C 55.214007,22.87721 53.523101,23.37222 52.70954,24.725743 L 27.050917,67.41401 c -0.823992,1.370874 -0.440355,3.090059 0.826403,3.851468 1.266758,0.761411 2.976002,0.276591 3.789573,-1.076946 L 57.325515,27.500265 c 0.823991,-1.370876 0.439356,-3.089806 -0.827403,-3.851216 z m 26.111662,25.923189 c -1.266759,-0.76141 -2.9648,-0.293816 -3.767932,1.042355 L 57.678825,85.823515 c -0.803142,1.33619 -0.419338,3.05509 0.847421,3.816504 1.266759,0.761403 2.965413,0.294216 3.768555,-1.041977 L 83.457819,53.389115 c 0.803136,-1.33617 0.418712,-3.055465 -0.848045,-3.816877 z M 44.225238,26.736745 c -1.284109,-0.77184 -2.982186,-0.304271 -3.767932,1.042352 L 19.388114,62.831929 c -0.803136,1.336177 -0.419336,3.055096 0.847419,3.816504 1.26676,0.761413 2.964799,0.293822 3.767932,-1.042355 L 45.07266,30.553245 c 0.803133,-1.336171 0.41934,-3.055089 -0.847422,-3.8165 z M 90.033008,54.55429 C 88.748912,53.782452 87.0502,54.249648 86.264455,55.596269 L 65.331119,90.423071 c -0.803142,1.336193 -0.418714,3.055465 0.848045,3.816895 1.26676,0.7614 2.964791,0.29383 3.767933,-1.04235 L 90.880432,58.370795 C 91.683573,57.034622 91.299773,55.3157 90.033008,54.55429 Z M 34.751066,25.128652 C 33.484302,24.367238 31.83419,24.793065 31.065824,26.03202 L 13.344976,55.514204 c -0.761415,1.266764 -0.335408,2.916862 0.931355,3.678276 1.26676,0.761412 2.923209,0.363013 3.684622,-0.903751 L 35.6818,28.806544 c 0.76141,-1.266758 0.336026,-2.916481 -0.930734,-3.677892 z m 60.608566,37.89443 c -1.26676,-0.76141 -2.9648,-0.293818 -3.76793,1.042354 l -18.618173,30.97507 c -0.803134,1.33616 -0.419339,3.05509 0.847421,3.8165 1.266768,0.76141 2.965423,0.2942 3.768557,-1.04199 L 96.207682,66.839959 c 0.80313,-1.33617 0.41872,-3.055461 -0.84805,-3.816877 z m 4.221262,10.309187 c -1.266772,-0.761411 -2.936902,-0.300857 -3.757432,1.024873 L 80.761933,99.415036 c -0.803127,1.336164 -0.419344,3.055104 0.847414,3.816504 1.26677,0.76141 2.96481,0.2938 3.767934,-1.04235 L 100.4283,77.148773 c 0.80314,-1.336168 0.41936,-3.055088 -0.847406,-3.816504 z M 22.539866,28.112328 C 21.273104,27.350916 19.575439,27.81789 18.772311,29.154057 L 10.30275,43.244868 c -0.8031277,1.336166 -0.4193417,3.055091 0.847421,3.816504 1.266757,0.761408 2.96543,0.294185 3.768558,-1.041981 l 8.469558,-14.09081 c 0.80313,-1.336166 0.418336,-3.054846 -0.848421,-3.816253 z m 81.195824,55.677874 c -1.2841,-0.771841 -2.98217,-0.304279 -3.767916,1.042356 l -7.97905,13.274758 c -0.80315,1.33619 -0.419351,3.055094 0.847408,3.816504 1.26675,0.76141 2.96542,0.29422 3.76857,-1.04197 l 7.979048,-13.274769 c 0.80313,-1.336174 0.4187,-3.055474 -0.84806,-3.816879 z M 50.321142,63.401704 42.373611,76.624017 c -0.803142,1.336187 -0.419338,3.055092 0.847422,3.816502 1.266756,0.76141 2.965414,0.29421 3.768556,-1.041978 l 6.609622,-10.996429 a 10.590906,10.439155 31.0088 0 1 -3.278069,-5.000408 z m 12.250789,7.363577 a 10.590906,10.439155 31.0088 0 1 -5.953264,-0.548266 l -6.630635,11.031396 c -0.80313,1.336164 -0.419351,3.055086 0.847418,3.816502 1.26676,0.761417 2.964806,0.293812 3.767934,-1.042355 z" /></svg>
