<?xml version="1.0" encoding="UTF-8" standalone="no"?>
<svg
   width="512"
   height="512"
   fill="#999"
   version="1.1"
   viewBox="0 0 135.47 135.47"
   id="svg39"
   sodipodi:docname="logo.svg"
   xml:space="preserve"
   inkscape:version="1.2.2 (b0a8486541, 2022-12-01)"
   xmlns:inkscape="http://www.inkscape.org/namespaces/inkscape"
   xmlns:sodipodi="http://sodipodi.sourceforge.net/DTD/sodipodi-0.dtd"
   xmlns="http://www.w3.org/2000/svg"
   xmlns:svg="http://www.w3.org/2000/svg"><defs
     id="defs43" /><sodipodi:namedview
     id="namedview41"
     pagecolor="#ffffff"
     bordercolor="#000000"
     borderopacity="0.25"
     inkscape:showpageshadow="2"
     inkscape:pageopacity="0.0"
     inkscape:pagecheckerboard="0"
     inkscape:deskcolor="#d1d1d1"
     showgrid="false"
     inkscape:zoom="1.4142136"
     inkscape:cx="268.70057"
     inkscape:cy="252.43711"
     inkscape:window-width="1746"
     inkscape:window-height="958"
     inkscape:window-x="0"
     inkscape:window-y="0"
     inkscape:window-maximized="1"
     inkscape:current-layer="svg39" /><g
     id="g296"
     transform="matrix(0.95748754,0,0,0.95748754,0.29067178,-0.68954282)"><path
       id="path652"
       style="fill:#2f7bd9;fill-opacity:1;stroke-width:0.290153"
       d="M 71.058076,8.6754936 A 64.221345,63.301163 0 0 0 6.8373319,71.977272 64.221345,63.301163 0 0 0 71.058076,135.27827 64.221345,63.301163 0 0 0 135.2796,71.977272 64.221345,63.301163 0 0 0 71.058076,8.6754936 Z m 0,3.5511174 A 60.619168,59.750598 0 0 1 131.67734,71.977272 60.619168,59.750598 0 0 1 71.058076,131.72793 60.619168,59.750598 0 0 1 10.439588,71.977272 60.619168,59.750598 0 0 1 71.058076,12.226611 Z" /><path
       id="path652-3-6"
       style="fill:#2f7bd9;fill-opacity:1;stroke-width:0.234021"
       d="m 21.599261,82.506052 a 2.4576298,2.5018779 76.639782 0 0 -1.888345,2.859975 l -0.0067,0.0016 a 53.145906,53.918468 62.096955 0 0 0.02348,0.08202 2.4576298,2.5018779 76.639782 0 0 0.0053,0.02579 2.4576298,2.5018779 76.639782 0 0 0.07067,0.237277 53.145906,53.918468 62.096955 0 0 4.167411,10.60581 53.145906,53.918468 62.096955 0 0 58.29039,26.837706 l -0.0029,-0.012 a 2.5063344,2.4539195 3.3410945 0 0 0.05688,-0.0119 2.5063344,2.4539195 3.3410945 0 0 1.837691,-2.96265 2.5063344,2.4539195 3.3410945 0 0 -3.031022,-1.8071 2.5063344,2.4539195 3.3410945 0 0 -0.04039,0.0104 48.191555,48.892098 62.096955 0 1 -52.669053,-24.408663 48.191555,48.892098 62.096955 0 1 -3.83032,-9.756459 l -0.0092,0.0021 a 2.4576298,2.5018779 76.639782 0 0 -2.974149,-1.705134 z m 14.341471,6.904071 a 2.4576298,2.5018779 76.639782 0 0 -1.865568,2.969254 2.4576298,2.5018779 76.639782 0 0 0.256815,0.645411 l -0.0057,0.0029 a 42.67133,43.291627 62.096955 0 0 33.417395,20.688342 2.4791106,2.5018779 76.639782 0 0 0.336782,0.0331 42.67133,43.291627 62.096955 0 0 0.0066,9.6e-4 2.4791106,2.5018779 76.639782 0 0 0.65407,-0.0661 2.4791106,2.5018779 76.639782 0 0 1.861329,-2.99054 2.4791106,2.5018779 76.639782 0 0 -2.348454,-1.90072 l 2.15e-4,-0.01 A 37.736632,38.285195 62.096955 0 1 38.666863,90.530572 l -0.0057,0.0029 a 2.4576298,2.5018779 76.639782 0 0 -2.72035,-1.122719 z" /><path
       id="path652-3-6-7"
       style="fill:#2f7bd9;fill-opacity:1;stroke-width:0.234021"
       d="m 92.464486,35.995964 a 2.5018779,2.4791106 14.424493 0 0 -2.486341,1.856998 2.5018779,2.4791106 14.424493 0 0 1.192059,2.776193 l -0.0047,0.0077 a 37.736632,38.285195 89.881667 0 1 17.667606,29.941321 l 0.006,3.6e-5 a 2.5018779,2.4576298 14.424493 0 0 1.8831,2.26178 l -2e-5,7.76e-4 a 2.5018779,2.4576298 14.424493 0 0 3.03437,-1.75777 2.5018779,2.4576298 14.424493 0 0 0.0736,-0.69075 l 0.006,3.5e-5 a 42.67133,43.291627 89.881667 0 0 -19.920496,-33.880482 2.5018779,2.4791106 14.424493 0 0 -0.28253,-0.18604 42.67133,43.291627 89.881667 0 0 -0.0047,-0.0047 2.5018779,2.4791106 14.424493 0 0 -0.609951,-0.246034 2.5018779,2.4791106 14.424493 0 0 -0.554343,-0.0791 z" /><path
       id="path652-3-6-7-5"
       style="fill:#2f7bd9;fill-opacity:1;stroke-width:0.234021"
       d="m 62.640017,20.125751 a 2.5063344,2.4539195 7.6736756 0 0 -1.43123,2.630697 2.5063344,2.4539195 7.6736756 0 0 2.885893,2.030814 2.5063344,2.4539195 7.6736756 0 0 0.04076,-0.0072 48.191555,48.892098 66.429537 0 1 50.67433,28.318552 48.191555,48.892098 66.429537 0 1 3.08281,10.01734 l 0.01,-0.0014 a 2.4576298,2.5018779 80.972363 0 0 2.83708,1.924435 l 4.2e-4,-0.0011 a 2.4576298,2.5018779 80.972363 0 0 2.09864,-2.709276 l 0.007,-7.81e-4 a 53.145906,53.918468 66.429537 0 0 -0.0168,-0.08369 2.4576298,2.5018779 80.972363 0 0 -0.005,-0.02594 2.4576298,2.5018779 80.972363 0 0 -0.0526,-0.242 53.145906,53.918468 66.429537 0 0 -3.3552,-10.890345 A 53.145906,53.918468 66.429537 0 0 63.319714,19.92124 l 0.0021,0.01259 a 2.5063344,2.4539195 7.6736756 0 0 -0.0574,0.0076 2.5063344,2.4539195 7.6736756 0 0 -0.624824,0.184243 z" /><path
       id="path656"
       style="fill:#2f7bd9;stroke-width:0.211452"
       d="m 84.835384,39.549785 c -1.359248,-0.817004 -3.125568,-0.29952 -3.946202,1.106892 L 68.576745,61.140888 a 11.061142,10.902654 31.0088 0 1 6.218242,0.573 L 85.721083,43.536133 c 0.838793,-1.395501 0.437303,-3.191132 -0.885699,-3.986348 z M 76.639675,35.04347 c -1.323002,-0.795218 -3.085544,-0.324987 -3.935228,1.088633 L 43.978561,83.923377 c -0.838787,1.39549 -0.437955,3.19074 0.885045,3.985957 1.323002,0.795217 3.096443,0.306853 3.93523,-1.088636 L 77.524721,39.029423 c 0.838791,-1.395495 0.437954,-3.190736 -0.885046,-3.985953 z m 14.19824,12.580197 c -1.323013,-0.795223 -3.085544,-0.324985 -3.935228,1.088635 l -8.947122,14.885335 a 11.061142,10.902654 31.0088 0 1 3.426094,5.216816 L 91.722961,51.609621 c 0.838791,-1.395495 0.437958,-3.190737 -0.885046,-3.985954 z M 66.762454,33.37456 c -1.341119,-0.806108 -3.107101,-0.28912 -3.956784,1.1245 L 36.007804,79.082686 c -0.860578,1.431741 -0.459907,3.227258 0.863095,4.022474 1.323002,0.795217 3.108136,0.288871 3.95783,-1.124763 L 67.626594,37.396771 c 0.860576,-1.431743 0.458863,-3.226994 -0.86414,-4.022211 z m 27.271021,27.074179 c -1.323004,-0.795216 -3.096438,-0.306861 -3.935229,1.088636 L 67.995591,98.309574 c -0.838801,1.395516 -0.437957,3.190736 0.885047,3.985956 1.323003,0.79521 3.097077,0.30728 3.935878,-1.08824 L 94.919173,64.435086 c 0.838795,-1.395496 0.437303,-3.191128 -0.885698,-3.986347 z M 53.944665,36.59935 C 52.603541,35.793241 50.83007,36.28157 50.009436,37.687983 L 28.004772,74.297161 c -0.838795,1.395503 -0.437955,3.190742 0.885044,3.985957 1.323005,0.795219 3.096436,0.306867 3.935229,-1.088636 L 54.829712,40.585303 c 0.838792,-1.395497 0.437959,-3.190735 -0.885047,-3.985953 z M 101.7863,65.651995 c -1.34111,-0.806108 -3.115244,-0.318168 -3.935877,1.088242 L 75.987647,103.11335 c -0.838802,1.39552 -0.437305,3.19113 0.885698,3.98636 1.323004,0.79521 3.096428,0.30688 3.935229,-1.08863 L 102.67135,69.637952 c 0.8388,-1.395499 0.43796,-3.190741 -0.88505,-3.985957 z M 44.049839,34.919858 c -1.323008,-0.795221 -3.046385,-0.350487 -3.848867,0.943477 L 21.693319,66.654529 c -0.795222,1.323008 -0.350301,3.046371 0.972707,3.841591 1.323004,0.795219 3.052999,0.379131 3.848219,-0.943877 L 45.021898,38.761048 c 0.795216,-1.323002 0.350945,-3.045972 -0.972059,-3.84119 z m 63.299591,39.576943 c -1.32301,-0.795217 -3.09644,-0.306863 -3.93523,1.088635 L 83.96938,107.9358 c -0.838793,1.39548 -0.437958,3.19073 0.885047,3.98595 1.323012,0.79522 3.097087,0.30726 3.935881,-1.08825 L 108.23513,78.483148 c 0.83879,-1.395497 0.43731,-3.191124 -0.8857,-3.986347 z m 4.40868,10.766915 c -1.32301,-0.795218 -3.0673,-0.314215 -3.92426,1.070377 L 92.103589,112.50456 c -0.838785,1.39548 -0.437963,3.19074 0.88504,3.98595 1.323014,0.79522 3.096447,0.30685 3.93523,-1.08863 L 112.64315,89.249673 c 0.8388,-1.395494 0.43797,-3.190734 -0.88504,-3.985957 z M 31.296462,38.036009 c -1.323006,-0.795219 -3.096048,-0.307511 -3.934835,1.087982 l -8.845609,14.716443 c -0.838787,1.395492 -0.437961,3.190737 0.885046,3.985957 1.323001,0.795214 3.097095,0.307247 3.935882,-1.088245 l 8.845607,-14.716442 c 0.838789,-1.395492 0.43691,-3.190481 -0.886091,-3.985695 z m 84.800918,58.149972 c -1.34111,-0.80611 -3.11458,-0.317789 -3.93521,1.088637 l -8.33332,13.864162 c -0.83881,1.39551 -0.43797,3.19073 0.88503,3.98595 1.323,0.79521 3.09709,0.30728 3.9359,-1.08824 l 8.33332,-13.86416 c 0.83879,-1.3955 0.43729,-3.191137 -0.88572,-3.986349 z M 60.311227,74.892234 52.010825,88.701618 c -0.838801,1.395514 -0.437956,3.190738 0.885048,3.985955 1.323,0.795216 3.097078,0.307272 3.93588,-1.088242 L 63.734842,80.11466 a 11.061142,10.902654 31.0088 0 1 -3.423615,-5.222426 z m 12.794724,7.69052 a 11.061142,10.902654 31.0088 0 1 -6.217589,-0.572609 l -6.925035,11.52119 c -0.838789,1.39549 -0.43797,3.190732 0.885043,3.985955 1.323004,0.795224 3.096444,0.306857 3.93523,-1.088636 z" /></g></svg>
